<svg width="11" height="7" viewBox="0 0 11 7" fill="none" xmlns="http://www.w3.org/2000/svg">
<g clip-path="url(#clip0)">
<path d="M10.4165 0.208498C10.2809 0.0790212 10.1007 0.00673059 9.91318 0.00663191C9.7257 0.00653324 9.54538 0.0786339 9.40965 0.207967L5.312 4.30567L1.21385 0.207968C1.14777 0.141922 1.06933 0.0895385 0.983012 0.0538071C0.896689 0.0180758 0.804175 -0.000303225 0.710749 -0.000280467C0.617324 -0.000257709 0.524817 0.0181663 0.438512 0.0539398C0.352207 0.0897132 0.273793 0.142135 0.207747 0.208213C0.141701 0.274291 0.0893178 0.35273 0.0535865 0.439053C0.0178551 0.525376 -0.000523903 0.617891 -0.000501143 0.711317C-0.000478384 0.804742 0.0179457 0.897248 0.0537191 0.983553C0.0894925 1.06986 0.141914 1.14827 0.207992 1.21432L4.80858 5.81445C4.87457 5.88069 4.95299 5.93325 5.03933 5.96911C5.12568 6.00498 5.21826 6.02344 5.31176 6.02344C5.40526 6.02344 5.49784 6.00498 5.58418 5.96911C5.67053 5.93325 5.74895 5.88069 5.81493 5.81445L10.4155 1.21484C10.4817 1.14884 10.5342 1.07045 10.5701 0.984149C10.6059 0.897849 10.6244 0.805329 10.6245 0.711874C10.6246 0.61842 10.6063 0.525863 10.5706 0.439492C10.5349 0.35312 10.4825 0.274628 10.4165 0.208498L10.4165 0.208498Z" fill="#444444"/>
</g>
<defs>
<clipPath id="clip0">
<rect width="10.6245" height="6.02344" fill="white" transform="translate(10.6245 6.02344) rotate(180)"/>
</clipPath>
</defs>
</svg>
