<svg width="17" height="11" viewBox="0 0 17 11" fill="none" xmlns="http://www.w3.org/2000/svg">
<path d="M16.9604 5.28986C16.9547 5.27526 16.9484 5.26089 16.9416 5.24675C16.1877 3.69862 15.0145 2.38908 13.5488 1.45967C12.0429 0.504706 10.297 0 8.50015 0C6.70325 0 4.95734 0.504784 3.4514 1.45983C1.99111 2.38582 0.82114 3.6893 0.066954 5.22998C-0.0175689 5.39006 -0.0238531 5.58361 0.0583132 5.75239C0.812106 7.30076 1.98537 8.61053 3.45117 9.5401C4.95718 10.4952 6.7031 11 8.50015 11C10.2971 11 12.043 10.4952 13.549 9.54017C15.0148 8.61068 16.188 7.301 16.9418 5.75278C17.0124 5.60777 17.019 5.43992 16.9604 5.28986ZM8.50015 9.83486C5.46935 9.83486 2.65425 8.14248 1.24878 5.49988C2.65425 2.85728 5.46935 1.16499 8.50015 1.16499C11.5309 1.16499 14.3461 2.85744 15.7515 5.49996C14.346 8.14233 11.5308 9.83486 8.50015 9.83486Z" fill="#AFAFAF"/>
<path d="M5.125 5.5C5.125 3.63918 6.63918 2.125 8.5 2.125C10.3608 2.125 11.875 3.63918 11.875 5.5C11.875 7.36082 10.3608 8.875 8.5 8.875C6.63918 8.875 5.125 7.36082 5.125 5.5ZM6.46992 5.5C6.46992 6.61945 7.38055 7.53008 8.5 7.53008C9.61945 7.53008 10.5301 6.61945 10.5301 5.5C10.5301 4.38055 9.61945 3.46992 8.5 3.46992C7.38055 3.46992 6.46992 4.38055 6.46992 5.5Z" fill="#AFAFAF" stroke="white" stroke-width="0.25"/>
<line x1="0.688999" y1="0.841" x2="15.841" y2="10.311" stroke="#AFAFAF" stroke-linecap="round" stroke-linejoin="round"/>
</svg>
