<svg width="26" height="28" viewBox="0 0 26 28" fill="none" xmlns="http://www.w3.org/2000/svg">
<path d="M25.193 16.5688C25.3606 15.751 25.446 14.9125 25.446 14.0714C25.446 10.9989 24.311 8.05196 22.2501 5.77322C20.2971 3.61381 17.6649 2.2165 14.801 1.80843C14.7951 0.810273 13.98 0 12.9786 0C11.9736 0 11.1559 0.81609 11.1559 1.81927C11.1559 1.82103 11.156 1.82278 11.156 1.82453C5.12138 2.7369 0.620617 7.93021 0.620617 14.0714C0.620617 14.8977 0.703392 15.7234 0.86634 16.5307C0.346943 16.8516 0 17.4253 0 18.0786C0 19.0817 0.817626 19.8979 1.8227 19.8979C1.90604 19.8979 1.98791 19.8918 2.06831 19.8809C2.9729 21.5772 4.27365 23.0568 5.84723 24.1737C7.43948 25.3039 9.28883 26.0445 11.2171 26.3278C11.2925 27.2624 12.0779 28 13.0334 28C13.9886 28 14.7741 27.2626 14.8495 26.3282C16.7741 26.0455 18.6204 25.3068 20.2105 24.1801C21.7851 23.0643 23.0874 21.5849 23.9934 19.8886C24.0539 19.8947 24.1152 19.8979 24.1773 19.8979C25.1823 19.8979 26 19.0818 26 18.0786C25.9999 17.4505 25.6794 16.8958 25.193 16.5688ZM24.4142 16.2745C24.4067 16.2735 24.3992 16.2732 24.3917 16.2723C24.3684 16.2696 24.3448 16.2673 24.3211 16.2654C24.309 16.2645 24.297 16.2634 24.2849 16.2627C24.2493 16.2606 24.2134 16.2592 24.1772 16.2592C23.4549 16.2592 22.8293 16.6808 22.5346 17.2905C22.4769 17.4097 22.4325 17.5365 22.4019 17.6684H19.8518C20.0492 16.518 20.1504 15.311 20.1504 14.0714C20.1504 13.2865 20.108 12.5041 20.0252 11.739C20.5552 11.5138 20.9567 11.0449 21.089 10.4743H24.0548C24.4246 11.6086 24.6242 12.818 24.6242 14.0714C24.6241 14.8127 24.5536 15.552 24.4142 16.2745ZM6.73801 14.0714C6.73801 12.8261 6.84964 11.6151 7.05627 10.4744H12.6222V17.6685H7.05384C6.8488 16.5295 6.73801 15.319 6.73801 14.0714ZM11.4857 2.86267C11.5637 2.97381 11.6538 3.07495 11.7536 3.16531C11.7535 3.16525 11.7536 3.16536 11.7536 3.16531C11.8146 3.22054 11.8794 3.27176 11.9473 3.31829C11.9561 3.32433 11.965 3.33038 11.974 3.33631C11.9927 3.34867 12.0114 3.36093 12.0306 3.37256C12.0486 3.38357 12.067 3.39397 12.0855 3.40436C12.107 3.41638 12.1286 3.42802 12.1505 3.43926C12.1703 3.44936 12.1902 3.45919 12.2104 3.46862C12.2236 3.47472 12.2369 3.48082 12.2502 3.48669C12.278 3.49878 12.306 3.51024 12.3343 3.52097C12.34 3.52312 12.3455 3.52555 12.3512 3.52764C12.3859 3.5404 12.4213 3.55175 12.4569 3.56242C12.4664 3.56525 12.4759 3.56784 12.4855 3.5705C12.5156 3.57897 12.546 3.58665 12.5766 3.5936C12.5841 3.59529 12.5914 3.59715 12.5988 3.59874C12.6066 3.60037 12.6144 3.60201 12.6222 3.60359V9.65421H7.2242C7.97489 6.36777 9.53574 3.78487 11.4857 2.86267ZM13.7653 3.46021C13.7686 3.45863 13.7719 3.45688 13.7753 3.45524C14.0672 3.31377 14.3177 3.09686 14.4981 2.825C16.2009 3.58456 17.6539 5.60872 18.5203 8.42649C18.0309 8.66362 17.6635 9.11309 17.5381 9.65404H13.4442V3.57812C13.4513 3.57626 13.4583 3.57406 13.4653 3.57208C13.4805 3.5679 13.4957 3.56378 13.5107 3.5592C13.5341 3.55203 13.5572 3.5443 13.5801 3.53622C13.608 3.52656 13.6355 3.51606 13.6627 3.50499C13.6743 3.5003 13.6859 3.49567 13.6974 3.49076C13.7202 3.48116 13.7429 3.47094 13.7653 3.46021ZM19.3135 11.0632C18.7616 11.0632 18.3126 10.615 18.3126 10.0643C18.3126 9.51342 18.7616 9.06526 19.3135 9.06526C19.8654 9.06526 20.3144 9.51337 20.3144 10.0643C20.3144 10.6152 19.8654 11.0632 19.3135 11.0632ZM12.6224 18.4888V24.4087C12.1266 24.5232 11.7078 24.8401 11.4581 25.2672C9.5152 24.3338 7.96533 21.7673 7.22041 18.4888L12.6224 18.4888ZM14.6086 25.2673C14.3589 24.8401 13.9401 24.5232 13.4442 24.4087V18.4888H18.8425C18.0954 21.7597 16.5458 24.3338 14.6086 25.2673ZM13.4442 17.6685V10.4744H17.5381C17.7178 11.2493 18.3944 11.8363 19.2137 11.8807C19.2895 12.5995 19.3286 13.3342 19.3286 14.0714C19.3286 15.3168 19.217 16.5279 19.0104 17.6685H13.4442ZM23.7524 9.65404H21.0889C20.9027 8.851 20.1829 8.2499 19.3237 8.24516C18.6145 5.91079 17.5082 4.06249 16.1708 2.92998C19.6416 3.89488 22.4146 6.4103 23.7524 9.65404ZM12.9786 0.820325C13.5305 0.820325 13.9795 1.26844 13.9795 1.81933C13.9795 1.91596 13.9649 2.00914 13.9391 2.09757C13.9364 2.10717 13.9336 2.11689 13.9306 2.12637C13.9225 2.15139 13.9135 2.17596 13.9035 2.20001C13.9022 2.20323 13.9011 2.20662 13.8997 2.20984C13.7983 2.44714 13.6076 2.63751 13.3698 2.73865C13.3671 2.73978 13.3643 2.7408 13.3616 2.74193C13.3367 2.75221 13.3114 2.76141 13.2857 2.76971C13.2778 2.77231 13.2697 2.77457 13.2617 2.77694C13.2405 2.78315 13.219 2.78869 13.1972 2.79349C13.1874 2.79569 13.1775 2.79789 13.1674 2.79981C13.1459 2.80394 13.124 2.8071 13.1021 2.80975C13.0925 2.81088 13.0832 2.81246 13.0736 2.81337C13.0423 2.8163 13.0107 2.81817 12.9786 2.81817C12.9468 2.81817 12.9154 2.8163 12.8843 2.81342C12.874 2.81246 12.864 2.81083 12.8537 2.80953C12.8329 2.80693 12.8122 2.80394 12.7919 2.80004C12.7805 2.79789 12.7692 2.79541 12.758 2.79287C12.7385 2.78846 12.7192 2.78349 12.7001 2.77802C12.6897 2.77502 12.6794 2.77203 12.6692 2.76875C12.6474 2.76164 12.626 2.75373 12.6049 2.7452C12.5983 2.74261 12.5916 2.74023 12.585 2.73741C12.527 2.71251 12.4718 2.68258 12.42 2.64773C12.4192 2.64717 12.4185 2.6466 12.4177 2.64609C12.3924 2.62898 12.3679 2.61063 12.3443 2.59137C12.3427 2.59013 12.3412 2.58877 12.3397 2.58742C12.3163 2.56794 12.2936 2.54755 12.272 2.52603C12.2715 2.52552 12.2711 2.52513 12.2706 2.52462C12.1814 2.43551 12.1092 2.32956 12.0587 2.21221C12.0565 2.20719 12.0546 2.20205 12.0526 2.19702C12.0433 2.17443 12.0348 2.15139 12.0273 2.12807C12.0244 2.11915 12.0216 2.11011 12.019 2.10113C11.9926 2.01168 11.9778 1.9172 11.9778 1.81927C11.9778 1.26844 12.4267 0.820325 12.9786 0.820325ZM9.90062 2.93032C8.95043 3.73664 8.10683 4.90919 7.44627 6.365C6.98832 7.37434 6.63046 8.48037 6.37551 9.65404H2.31878C3.6596 6.41493 6.43413 3.89567 9.90062 2.93032ZM1.65166 16.2672C1.51276 15.5456 1.44249 14.8087 1.44249 14.0714C1.44249 12.8193 1.64295 11.6096 2.01473 10.4743H6.21494C6.01742 11.6247 5.91626 12.8317 5.91626 14.0714C5.91626 15.2965 6.02059 16.5093 6.2206 17.6684H3.59815C3.5676 17.5365 3.52307 17.4098 3.46542 17.2905C3.1707 16.6809 2.5451 16.2593 1.82275 16.2593C1.82287 16.2593 1.82264 16.2593 1.82275 16.2593C1.79265 16.2593 1.7625 16.2601 1.73262 16.2616C1.72357 16.2621 1.71469 16.2629 1.70575 16.2635C1.6877 16.2646 1.66965 16.2656 1.65166 16.2672ZM0.821869 18.0786C0.821869 17.6369 1.11076 17.262 1.50959 17.1304C1.51904 17.1273 1.52837 17.1242 1.53788 17.1214C1.5587 17.1152 1.57992 17.1099 1.60125 17.1051C1.61115 17.1028 1.62105 17.1004 1.63101 17.0985C1.65319 17.0941 1.67576 17.091 1.69845 17.0881C1.70773 17.087 1.71684 17.0854 1.72617 17.0845C1.75792 17.0814 1.79 17.0796 1.82247 17.0796C1.82242 17.0796 1.82253 17.0796 1.82247 17.0796C2.01258 17.0796 2.19007 17.1338 2.34164 17.226C2.62997 17.4016 2.82353 17.7176 2.82353 18.0786C2.82353 18.1097 2.82166 18.1402 2.81889 18.1706C2.81798 18.1807 2.81651 18.1907 2.81527 18.2007C2.81272 18.221 2.80972 18.2411 2.80599 18.2611C2.80389 18.2723 2.80174 18.2833 2.79937 18.2944C2.79495 18.3144 2.78969 18.3342 2.78403 18.3539C2.78143 18.3631 2.77917 18.3723 2.77623 18.3814C2.76751 18.4088 2.75767 18.4356 2.74669 18.4618C2.74341 18.4697 2.73951 18.4774 2.736 18.4852C2.72723 18.5048 2.71806 18.5241 2.70811 18.5429C2.70358 18.5516 2.69871 18.56 2.6939 18.5686C2.68321 18.5874 2.67201 18.6058 2.66013 18.6239C2.65588 18.6304 2.65175 18.6369 2.64734 18.6433C2.61277 18.6935 2.57396 18.7405 2.53101 18.7835C2.52954 18.785 2.52796 18.7863 2.52649 18.7879C2.50657 18.8076 2.48569 18.8264 2.46408 18.8444C2.46012 18.8478 2.4561 18.851 2.45203 18.8543C2.43189 18.8706 2.41101 18.8862 2.38956 18.9009C2.38543 18.9037 2.38142 18.9067 2.37723 18.9095C2.32688 18.9431 2.27335 18.9722 2.21717 18.9964C2.20919 18.9998 2.20082 19.0027 2.19267 19.0059C2.07798 19.0517 1.95328 19.0776 1.82247 19.0776C1.27082 19.0776 0.821869 18.6295 0.821869 18.0786ZM2.84192 19.5868C2.88803 19.5557 2.93205 19.5219 2.97488 19.487C2.9785 19.4841 2.98212 19.4812 2.98568 19.4782C3.00588 19.4615 3.0258 19.4444 3.04526 19.4267C3.04769 19.4245 3.05001 19.4224 3.05239 19.4202C3.11185 19.3658 3.16747 19.3078 3.21896 19.2464C3.22303 19.2415 3.22722 19.2368 3.23124 19.2319C3.2447 19.2155 3.25783 19.1987 3.27073 19.1818C3.27842 19.1718 3.28595 19.1618 3.29342 19.1516C3.30445 19.1366 3.31526 19.1215 3.32578 19.1061C3.33557 19.0919 3.34502 19.0774 3.35441 19.0628C3.36239 19.0504 3.3707 19.0381 3.37834 19.0256C3.39526 18.998 3.41144 18.9699 3.42689 18.9415C3.43 18.9357 3.43283 18.9298 3.43583 18.924C3.4489 18.8992 3.46151 18.874 3.47351 18.8486C3.47719 18.8408 3.48069 18.8328 3.48426 18.825C3.4954 18.8003 3.50599 18.7754 3.51611 18.7502C3.51894 18.7431 3.52183 18.736 3.52454 18.7288C3.53592 18.6993 3.54661 18.6694 3.55645 18.6391C3.55725 18.6367 3.55815 18.6343 3.55894 18.6319C3.57394 18.585 3.58684 18.5373 3.59804 18.4889H6.38009C6.64228 19.6977 7.01146 20.8342 7.47796 21.8473C8.13427 23.2727 8.96559 24.4196 9.90022 25.2124C6.89977 24.3779 4.35315 22.3674 2.84192 19.5868ZM13.0333 27.1797C12.4814 27.1797 12.0324 26.7316 12.0324 26.1807C12.0324 26.1194 12.0388 26.0597 12.0494 26.0015C12.0518 25.9886 12.0542 25.9758 12.0571 25.9631C12.0613 25.9444 12.0662 25.9259 12.0714 25.9075C12.075 25.8953 12.0783 25.8831 12.0823 25.8711C12.088 25.8537 12.0945 25.8368 12.1011 25.8199C12.1061 25.8071 12.1108 25.7942 12.1163 25.7817C12.1224 25.7678 12.1293 25.7545 12.1361 25.7409C12.1436 25.7259 12.1507 25.7108 12.1588 25.6962C12.1623 25.69 12.1663 25.6842 12.17 25.678C12.2709 25.5071 12.4209 25.3687 12.5993 25.2821C12.6004 25.2815 12.6015 25.281 12.6026 25.2805C12.6269 25.2688 12.6519 25.2582 12.6772 25.2484C12.6814 25.2468 12.6856 25.2453 12.6899 25.2438C12.7128 25.2353 12.736 25.2276 12.7596 25.2208C12.7679 25.2184 12.7763 25.2164 12.7847 25.2144C12.8051 25.209 12.8256 25.204 12.8464 25.2C12.8608 25.1972 12.8755 25.1954 12.8902 25.1933C12.9059 25.191 12.9217 25.1883 12.9377 25.1867C12.9691 25.1837 13.0009 25.1819 13.0332 25.1819C13.0331 25.1819 13.0333 25.1819 13.0332 25.1819C13.0655 25.1819 13.0977 25.1838 13.1294 25.1867C13.1452 25.1883 13.1606 25.191 13.1762 25.1932C13.191 25.1954 13.206 25.1973 13.2207 25.2C13.2413 25.204 13.2615 25.209 13.2817 25.2142C13.2903 25.2165 13.2991 25.2185 13.3077 25.2209C13.331 25.2276 13.3539 25.2353 13.3765 25.2436C13.381 25.2453 13.3857 25.2468 13.3903 25.2486C13.4153 25.2582 13.4398 25.2687 13.4639 25.2803C13.4653 25.281 13.4669 25.2817 13.4683 25.2824C13.6463 25.369 13.796 25.5071 13.8968 25.6777C13.9005 25.684 13.9046 25.6901 13.9082 25.6965C13.9163 25.711 13.9233 25.7261 13.9308 25.741C13.9375 25.7546 13.9444 25.768 13.9506 25.7819C13.9561 25.7944 13.9609 25.8073 13.9658 25.8202C13.9724 25.837 13.9788 25.8539 13.9846 25.8711C13.9886 25.8833 13.992 25.8957 13.9955 25.908C14.0007 25.9262 14.0056 25.9444 14.0097 25.963C14.0126 25.976 14.0151 25.989 14.0175 26.002C14.0281 26.0601 14.0344 26.1197 14.0344 26.1808C14.0342 26.7316 13.5852 27.1797 13.0333 27.1797ZM23.2072 19.6177C21.694 22.3821 19.1543 24.381 16.1659 25.2126C17.1158 24.4066 17.9592 23.2345 18.6197 21.7792C19.0779 20.7695 19.4361 19.663 19.6911 18.4888H22.4019C22.5117 18.9621 22.8072 19.3654 23.2072 19.6177C23.207 19.6176 23.2073 19.6178 23.2072 19.6177ZM24.1772 19.0776C24.0752 19.0776 23.9767 19.062 23.8838 19.0335C23.8767 19.0313 23.8699 19.0286 23.8629 19.0263C23.8409 19.019 23.8191 19.0113 23.7979 19.0025C23.7883 18.9986 23.779 18.9943 23.7696 18.99C23.7517 18.982 23.734 18.9736 23.7167 18.9646C23.7061 18.959 23.6956 18.9534 23.6853 18.9476C23.6704 18.9391 23.6558 18.9301 23.6413 18.9209C23.6298 18.9135 23.6181 18.9062 23.607 18.8984C23.5962 18.891 23.586 18.8829 23.5756 18.8751C23.5209 18.8335 23.4702 18.7871 23.4253 18.7357C23.425 18.7355 23.4248 18.7352 23.4246 18.735C23.4077 18.7155 23.3914 18.6954 23.376 18.6747C23.3755 18.6741 23.3751 18.6736 23.3747 18.6729C23.2999 18.5722 23.2442 18.4576 23.211 18.3352C23.2084 18.3256 23.2058 18.3159 23.2035 18.3061C23.1996 18.2897 23.1962 18.273 23.1931 18.2564C23.1903 18.2405 23.1878 18.2244 23.1857 18.2083C23.184 18.1956 23.1821 18.1829 23.1809 18.1701C23.1782 18.1399 23.1763 18.1095 23.1763 18.0787C23.1763 17.7176 23.3698 17.4016 23.6582 17.2261C23.8098 17.1338 23.987 17.0797 24.1772 17.0797C24.1769 17.0797 24.1775 17.0797 24.1772 17.0797C24.2114 17.0797 24.246 17.0815 24.2794 17.0849C24.2799 17.0849 24.2803 17.085 24.2808 17.0851C24.7842 17.137 25.178 17.5627 25.178 18.0787C25.1781 18.6295 24.7292 19.0776 24.1772 19.0776Z" fill="url(#paint0_linear)"/>
<defs>
<linearGradient id="paint0_linear" x1="13" y1="28" x2="13" y2="1.00136e-05" gradientUnits="userSpaceOnUse">
<stop stop-color="white"/>
</linearGradient>
</defs>
</svg>
