<svg width="26" height="26" viewBox="0 0 26 26" fill="none" xmlns="http://www.w3.org/2000/svg">
<path d="M13.0022 8.42279C12.0969 8.42255 11.2119 8.69077 10.4591 9.19353C9.70621 9.69628 9.11936 10.411 8.7727 11.2473C8.42605 12.0836 8.33517 13.0039 8.51155 13.8918C8.68793 14.7797 9.12366 15.5954 9.76363 16.2357C10.4036 16.876 11.2191 17.3122 12.1069 17.489C12.9947 17.6658 13.9151 17.5754 14.7516 17.2292C15.588 16.883 16.303 16.2965 16.8062 15.5439C17.3093 14.7913 17.578 13.9064 17.5782 13.0011C17.5768 11.7877 17.0942 10.6244 16.2365 9.76621C15.3787 8.90798 14.2156 8.42488 13.0022 8.42279V8.42279ZM13.0022 15.9114C12.4263 15.9116 11.8633 15.7411 11.3843 15.4213C10.9054 15.1016 10.532 14.6469 10.3115 14.1149C10.091 13.5829 10.0332 12.9975 10.1455 12.4326C10.2578 11.8678 10.5351 11.3489 10.9423 10.9417C11.3495 10.5345 11.8683 10.2572 12.4332 10.1449C12.998 10.0327 13.5835 10.0904 14.1155 10.3109C14.6475 10.5315 15.1021 10.9048 15.4219 11.3838C15.7417 11.8627 15.9122 12.4258 15.9119 13.0016C15.9107 13.773 15.6038 14.5124 15.0583 15.0578C14.5129 15.6032 13.7735 15.9101 13.0022 15.9114Z" fill="white"/>
<path d="M24.3356 9.82878H21.9707C21.8632 9.82887 21.758 9.79706 21.6686 9.73738C21.5791 9.6777 21.5094 9.59283 21.4682 9.4935C21.427 9.39417 21.4161 9.28485 21.4371 9.17938C21.458 9.0739 21.5098 8.97701 21.5858 8.90095L23.2583 7.22849C23.5698 6.91572 23.7447 6.49224 23.7447 6.05078C23.7447 5.60932 23.5698 5.18584 23.2583 4.87307L21.1269 2.74171C20.8041 2.44983 20.3844 2.28823 19.9492 2.28823C19.514 2.28823 19.0943 2.44983 18.7715 2.74171L17.099 4.41417C17.0252 4.49277 16.9286 4.54636 16.8229 4.56746C16.7171 4.58856 16.6074 4.57612 16.5091 4.53187C16.4078 4.49345 16.321 4.42457 16.2606 4.33472C16.2002 4.24488 16.1691 4.1385 16.1716 4.03025V1.66484C16.1712 1.22352 15.9957 0.800395 15.6837 0.488287C15.3717 0.176179 14.9486 0.000575585 14.5073 0H11.4927C11.0514 0.000567557 10.6283 0.176167 10.3163 0.488276C10.0042 0.800385 9.82875 1.22352 9.8283 1.66484V4.03023C9.82833 4.13768 9.79649 4.24273 9.7368 4.33208C9.6771 4.42143 9.59225 4.49107 9.49296 4.53217C9.39368 4.57328 9.28443 4.58401 9.17905 4.563C9.07367 4.542 8.97689 4.4902 8.90095 4.41417L7.22849 2.74171C6.90577 2.44985 6.48616 2.28824 6.05103 2.28824C5.61591 2.28824 5.19629 2.44985 4.87358 2.74171L2.74124 4.8731C2.42989 5.18601 2.25515 5.60949 2.25524 6.05091C2.25533 6.49232 2.43024 6.91574 2.74171 7.22852L4.41417 8.90098C4.49239 8.97587 4.54561 9.07305 4.56659 9.17929C4.58757 9.28552 4.57528 9.39564 4.5314 9.49464C4.49295 9.59552 4.42403 9.6819 4.3342 9.74179C4.24438 9.80167 4.13813 9.83207 4.03023 9.82876H1.66484C1.22356 9.8291 0.800438 10.0045 0.488319 10.3164C0.176199 10.6284 0.000581124 11.0514 0 11.4927V14.5073C0.000586477 14.9486 0.176207 15.3716 0.488326 15.6835C0.800444 15.9955 1.22357 16.1709 1.66484 16.1712H4.03023C4.13749 16.1716 4.24223 16.2037 4.3313 16.2635C4.42036 16.3233 4.48977 16.408 4.5308 16.5071C4.57183 16.6062 4.58265 16.7153 4.5619 16.8205C4.54115 16.9257 4.48975 17.0225 4.41417 17.0986L2.74124 18.772C2.42991 19.0848 2.25517 19.5082 2.25526 19.9495C2.25535 20.3909 2.43026 20.8142 2.74171 21.1269L4.87358 23.2578C5.19618 23.5498 5.61573 23.7116 6.05085 23.7117C6.48597 23.7119 6.90566 23.5505 7.22849 23.2587L8.90095 21.5863C8.9769 21.5101 9.07377 21.4582 9.17927 21.4371C9.28476 21.4161 9.39414 21.4268 9.49353 21.468C9.59292 21.5092 9.67784 21.5789 9.73752 21.6684C9.79721 21.7579 9.82897 21.8631 9.82878 21.9707V24.3361C9.82923 24.7772 10.0047 25.2002 10.3166 25.5121C10.6286 25.8241 11.0515 25.9995 11.4927 26H14.5073C14.9485 25.9997 15.3716 25.8243 15.6836 25.5123C15.9957 25.2003 16.1712 24.7773 16.1717 24.3361V21.9707C16.1689 21.8627 16.1996 21.7564 16.2596 21.6665C16.3195 21.5766 16.4059 21.5075 16.5067 21.4686C16.6054 21.4238 16.7156 21.411 16.8218 21.4321C16.9281 21.4532 17.025 21.5072 17.099 21.5863L18.7715 23.2587C19.0868 23.5655 19.5093 23.7371 19.9492 23.7371C20.3891 23.7371 20.8116 23.5655 21.1269 23.2587L23.2578 21.1269C23.5696 20.8142 23.7447 20.3906 23.7447 19.949C23.7448 19.5075 23.5699 19.0839 23.2583 18.771L21.5863 17.0995C21.5106 17.0233 21.4591 16.9265 21.4383 16.8211C21.4175 16.7157 21.4283 16.6066 21.4694 16.5074C21.5105 16.4081 21.58 16.3233 21.6692 16.2635C21.7584 16.2036 21.8633 16.1715 21.9707 16.1712H24.3356C24.7768 16.1709 25.1999 15.9955 25.512 15.6835C25.824 15.3715 25.9995 14.9485 26 14.5073V11.4927C25.9995 11.0515 25.824 10.6284 25.512 10.3165C25.1999 10.0045 24.7768 9.82912 24.3356 9.82878V9.82878ZM21.9707 14.5083C21.5341 14.5082 21.1072 14.6376 20.7442 14.8801C20.3811 15.1227 20.0982 15.4675 19.9311 15.8709C19.764 16.2743 19.7204 16.7182 19.8057 17.1464C19.891 17.5746 20.1013 17.9679 20.4102 18.2765L22.0803 19.9509L19.9499 22.0798L18.2779 20.4102C17.9692 20.1013 17.5758 19.8908 17.1475 19.8054C16.7192 19.7201 16.2751 19.7637 15.8716 19.9308C15.4681 20.0978 15.1231 20.3808 14.8804 20.7439C14.6378 21.107 14.5082 21.534 14.5082 21.9707L14.5073 24.337L11.4917 24.3351V21.9707C11.4968 21.5333 11.3695 21.1045 11.1266 20.7407C10.8837 20.3768 10.5366 20.0949 10.1306 19.9318C9.85895 19.8169 9.56705 19.7575 9.27208 19.7572C8.98369 19.7577 8.69826 19.8155 8.43241 19.9273C8.16656 20.039 7.92558 20.2026 7.72349 20.4083L6.04913 22.0808L3.92014 19.948L5.5926 18.2765C5.90093 17.9675 6.11078 17.5741 6.19564 17.1459C6.2805 16.7177 6.23657 16.274 6.06939 15.8708C5.90221 15.4676 5.61929 15.1229 5.25635 14.8804C4.89342 14.6379 4.46675 14.5084 4.03025 14.5082L1.66631 14.5073L1.66484 11.4917H4.03023C4.46672 11.4916 4.89337 11.362 5.25629 11.1195C5.61921 10.877 5.90212 10.5324 6.0693 10.1291C6.23647 9.72593 6.28041 9.28222 6.19556 8.85405C6.11071 8.42588 5.90089 8.03246 5.59258 7.72347L3.92014 6.04913L6.05296 3.91965L7.72349 5.58973C8.03207 5.8985 8.42527 6.10883 8.85338 6.19413C9.2815 6.27943 9.72529 6.23586 10.1286 6.06893C10.532 5.90201 10.8768 5.61922 11.1194 5.25634C11.3621 4.89345 11.4916 4.46676 11.4918 4.03024L11.4927 1.6663L14.5082 1.66484V4.03023C14.5086 4.46676 14.6383 4.8934 14.8809 5.25628C15.1236 5.61916 15.4683 5.90201 15.8716 6.06912C16.2748 6.23623 16.7186 6.2801 17.1468 6.19521C17.575 6.11031 17.9684 5.90044 18.2774 5.59211L19.9508 3.91965L22.0803 6.05246L20.4103 7.72302C20.1011 8.03172 19.8905 8.42519 19.805 8.85363C19.7196 9.28207 19.7632 9.72623 19.9302 10.1299C20.0973 10.5336 20.3803 10.8786 20.7436 11.1214C21.1068 11.3641 21.5339 11.4937 21.9708 11.4936L24.3366 11.4927L24.3371 14.5073H23.7513L21.9707 14.5083Z" fill="white"/>
</svg>
