<svg width="22" height="22" viewBox="0 0 22 22" fill="none" xmlns="http://www.w3.org/2000/svg">
<path d="M20.8683 8.55621H18.8093C18.4788 8.55621 18.2063 8.37284 18.079 8.06886C17.9537 7.76226 18.0174 7.43993 18.2501 7.20716L19.7061 5.75115C19.9189 5.53826 20.0366 5.25362 20.0366 4.95161C20.0366 4.64912 19.9189 4.36442 19.7061 4.1495L17.8503 2.29372C17.4225 1.86597 16.6764 1.86597 16.2486 2.29372L14.7927 3.74973C14.56 3.98245 14.2376 4.04818 13.933 3.92084C13.6269 3.7935 13.4436 3.52107 13.4436 3.19108V1.1321C13.4436 0.507227 12.9364 0 12.312 0H9.68776C9.06343 0 8.55615 0.507227 8.55615 1.1321V3.19108C8.55615 3.52107 8.37278 3.79355 8.06875 3.92084C7.7622 4.04818 7.43982 3.98245 7.20705 3.74973L5.75109 2.29372C5.32334 1.86597 4.5772 1.86597 4.14945 2.29372L2.29367 4.1495C2.08078 4.36239 1.96313 4.64912 1.96313 4.95161C1.96313 5.25362 2.08078 5.53831 2.29367 5.75115L3.74968 7.20716C3.9824 7.43988 4.04604 7.76226 3.92078 8.06886C3.79552 8.37289 3.52101 8.55621 3.19097 8.55621H1.1321C0.507227 8.55621 0 9.06343 0 9.68781V12.3121C0 12.9365 0.507227 13.4437 1.1321 13.4437H3.19108C3.52112 13.4437 3.79355 13.627 3.92089 13.9331C4.04823 14.2376 3.98251 14.56 3.74979 14.7927L2.29378 16.2487C2.08089 16.4616 1.96324 16.7483 1.96324 17.0488C1.96324 17.3529 2.08089 17.6376 2.29378 17.8504L4.14956 19.7062C4.57731 20.1339 5.32345 20.1339 5.7512 19.7062L7.20716 18.2502C7.43988 18.0175 7.76226 17.9538 8.06886 18.0791C8.37289 18.2064 8.55626 18.4789 8.55626 18.8094V20.8684C8.55626 21.4928 9.06349 22 9.68787 22H12.3121C12.9365 22 13.4437 21.4928 13.4437 20.8684V18.8094C13.4437 18.4789 13.6271 18.2064 13.9311 18.0791C14.2377 17.9518 14.56 18.0175 14.7928 18.2502L16.2487 19.7062C16.6765 20.1339 17.4226 20.1339 17.8504 19.7062L19.7062 17.8504C19.9191 17.6375 20.0367 17.3529 20.0367 17.0488C20.0367 16.7484 19.9191 16.4637 19.7062 16.2487L18.2502 14.7927C18.0175 14.56 17.9538 14.2376 18.0791 13.9331C18.2044 13.6271 18.4789 13.4437 18.8094 13.4437H20.8684C21.4928 13.4437 22 12.9365 22 12.3121V9.68781C21.9999 9.06343 21.4926 8.55621 20.8683 8.55621ZM21.1866 12.3121C21.1866 12.4872 21.0429 12.6303 20.8683 12.6303H18.8093C18.1488 12.6303 17.5799 13.0103 17.3268 13.6209C17.0722 14.2315 17.2056 14.9022 17.6752 15.3697L19.1291 16.8257C19.2549 16.9489 19.2549 17.1501 19.1291 17.2754L17.2754 19.1291C17.1502 19.2528 16.949 19.2549 16.8257 19.1291L15.3697 17.6751C14.9022 17.2056 14.2315 17.0742 13.6209 17.3268C13.0103 17.5799 12.6304 18.1488 12.6304 18.8093V20.8683C12.6304 21.0429 12.4873 21.1866 12.3121 21.1866H9.68781C9.51315 21.1866 9.36954 21.0429 9.36954 20.8683V18.8093C9.36954 18.1488 8.99168 17.5799 8.37902 17.3268C8.17429 17.2412 7.96348 17.1995 7.75464 17.1995C7.34266 17.1995 6.94081 17.363 6.6307 17.6731L5.17623 19.1291C5.05097 19.2549 4.84979 19.2528 4.72453 19.1291L2.87084 17.2754C2.7476 17.1501 2.7476 16.9489 2.87084 16.8237L4.32685 15.3697C4.79431 14.9022 4.92779 14.2315 4.67311 13.6209C4.42051 13.0102 3.8532 12.6303 3.19113 12.6303H1.1321C0.956946 12.6303 0.815857 12.4872 0.815857 12.3121V9.68781C0.815857 9.51315 0.956946 9.36955 1.1321 9.36955H3.19108C3.85314 9.36955 4.42045 8.99168 4.67305 8.37902C4.92768 7.76839 4.79426 7.09768 4.32679 6.6307L2.87078 5.17623C2.74755 5.05097 2.74755 4.84979 2.87078 4.72454L4.72448 2.87078C4.84979 2.74755 5.05091 2.74755 5.17617 2.87078L6.63065 4.32471C7.09817 4.79223 7.76834 4.92768 8.37897 4.67305C8.99163 4.42045 9.36949 3.85314 9.36949 3.19108V1.1321C9.36949 0.956891 9.5131 0.815857 9.68776 0.815857H12.312C12.4872 0.815857 12.6303 0.956891 12.6303 1.1321V3.19108C12.6303 3.85314 13.0102 4.42045 13.6209 4.67305C14.2315 4.92768 14.9022 4.79426 15.3697 4.32674L16.8256 2.87073C16.9489 2.74749 17.1521 2.74749 17.2754 2.87073L19.1291 4.72651C19.2549 4.84974 19.2549 5.05294 19.1291 5.17617L17.6751 6.63065C17.2076 7.09762 17.0722 7.76834 17.3268 8.381C17.5799 8.99163 18.1488 9.37152 18.8092 9.37152H20.8682C21.0429 9.36949 21.1865 9.5131 21.1865 9.68776L21.1866 12.3121Z" fill="url(#paint0_linear)"/>
<path d="M11.0008 7.33258C8.97744 7.33258 7.33203 8.97804 7.33203 11.0013C7.33203 13.0221 8.97744 14.6675 11.0008 14.6675C13.0215 14.6675 14.667 13.0221 14.667 11.0013C14.667 8.97804 13.0215 7.33258 11.0008 7.33258ZM11.0008 13.8517C9.4271 13.8517 8.14783 12.5725 8.14783 11.0014C8.14783 9.42771 9.4271 8.14844 11.0008 8.14844C12.5723 8.14844 13.8511 9.42771 13.8511 11.0014C13.8511 12.5725 12.5724 13.8517 11.0008 13.8517Z" fill="url(#paint1_linear)"/>
<defs>
<linearGradient id="paint0_linear" x1="11.0277" y1="22.4275" x2="10.9729" y2="-0.137824" gradientUnits="userSpaceOnUse">
<stop stop-color="white"/>
</linearGradient>
<linearGradient id="paint1_linear" x1="11.0272" y1="22.4277" x2="10.9725" y2="-0.137665" gradientUnits="userSpaceOnUse">
<stop offset="0.1024" stop-color="white"/>
</linearGradient>
</defs>
</svg>
