<svg width="23" height="29" viewBox="0 0 23 29" fill="none" xmlns="http://www.w3.org/2000/svg">
<path d="M22.8908 9.12114L15.1987 0.157041C15.1153 0.057579 14.991 -8.41206e-08 14.8594 -8.41206e-08H4.03198C1.80903 -8.41206e-08 -8.80276e-08 1.82532 -8.80276e-08 4.06762V24.9329C-8.80276e-08 27.1752 1.80903 29 4.03198 29H18.968C21.191 29 23 27.1752 23 24.9329V9.41654C23 9.30644 22.9608 9.20246 22.8908 9.12114ZM15.3079 1.66429L21.5718 8.96456H18.4455C16.7149 8.96456 15.3079 7.54544 15.3079 5.79968V1.66429ZM18.968 28.0978H4.03198C2.30357 28.0978 0.897228 26.6786 0.897228 24.9329V4.06762C0.897228 2.32416 2.30357 0.90504 4.03198 0.90504H14.413V5.79975C14.413 8.04206 16.2226 9.86684 18.4455 9.86684H22.1055V24.9329C22.1033 26.6786 20.6964 28.0978 18.968 28.0978ZM8.68117 12.7114L5.75592 15.6621L8.68117 18.6128C8.85591 18.7891 8.85591 19.0761 8.68117 19.2529C8.5938 19.341 8.47789 19.3851 8.36418 19.3851C8.24994 19.3851 8.13395 19.341 8.04666 19.2529L4.80442 15.9818C4.62968 15.8056 4.62968 15.5186 4.80442 15.3423L8.04666 12.0719C8.22193 11.895 8.50651 11.895 8.68125 12.0719C8.85583 12.2481 8.85583 12.5351 8.68117 12.7114ZM18.1957 15.3423C18.3709 15.5186 18.3709 15.8056 18.1957 15.9818L14.9534 19.2529C14.866 19.341 14.7523 19.3851 14.6364 19.3851C14.5227 19.3851 14.4068 19.341 14.3189 19.2529C14.1442 19.0761 14.1442 18.7891 14.3189 18.6128L17.2464 15.6621L14.3189 12.7114C14.1442 12.5351 14.1442 12.2481 14.3189 12.0719C14.4942 11.895 14.7788 11.895 14.9535 12.0719L18.1957 15.3423Z" fill="url(#paint0_linear)"/>
<defs>
<linearGradient id="paint0_linear" x1="11.5636" y1="30.0393" x2="11.4091" y2="-0.664639" gradientUnits="userSpaceOnUse">
<stop offset="0.1024" stop-color="#0054a6"/>
</linearGradient>
</defs>
</svg>
