<svg width="29" height="27" viewBox="0 0 29 27" fill="none" xmlns="http://www.w3.org/2000/svg">
<rect x="0.5" y="0.5" width="27.5395" height="25.3709" rx="4.5" stroke="#0054A6"/>
<path d="M20.6539 8.4493L18.5516 6.34703C18.3292 6.12482 18.0277 6 17.7133 6C17.3989 6 17.0973 6.12482 16.8749 6.34703L15.5957 7.62624C15.5862 7.63586 15.5773 7.64607 15.569 7.65681L8.61294 14.6127L8.60781 14.6076L8.60268 14.6127C8.59242 14.623 8.58217 14.6385 8.57188 14.6487C8.56823 14.6522 8.56559 14.6565 8.56425 14.6614C8.55421 14.6777 8.54563 14.695 8.53861 14.7128C8.53862 14.7178 8.53599 14.7205 8.53346 14.7283C8.52915 14.7416 8.52577 14.7553 8.52333 14.7691C8.5232 14.7743 8.52067 14.7821 8.5207 14.7871C8.5207 14.7923 8.5182 14.7948 8.51808 14.8L8.0028 18.6274C7.99628 18.6776 8.00119 18.7285 8.01717 18.7765C8.03315 18.8245 8.05978 18.8682 8.09506 18.9045C8.13082 18.9404 8.17449 18.9674 8.22258 18.9834C8.27066 18.9994 8.32183 19.0039 8.37197 18.9966L12.1996 18.4814C12.2048 18.4814 12.2073 18.4789 12.2125 18.4787C12.2176 18.4789 12.2252 18.4762 12.2305 18.4762C12.2433 18.4737 12.2586 18.4686 12.2714 18.4661C12.2765 18.466 12.2791 18.4634 12.2868 18.4609C12.3048 18.4532 12.3201 18.4429 12.3381 18.4351C12.3416 18.4315 12.3459 18.4289 12.3508 18.4275C12.3639 18.4187 12.376 18.4084 12.3868 18.3967L19.3653 11.4185C19.3806 11.4032 19.3943 11.3863 19.4063 11.3682L20.6539 10.1207C20.8755 9.899 21 9.59841 21 9.28498C21 8.97156 20.8755 8.67097 20.6539 8.4493V8.4493ZM15.831 8.3282L17.0206 9.51777L10.5025 16.0357L9.31287 14.8462L15.831 8.3282ZM11.4485 17.9148L8.70786 18.2814L9.077 15.5384L11.451 17.9123L11.4485 17.9148ZM12.1586 17.6918L10.969 16.5022L17.4872 9.98429L18.6768 11.1739L12.1586 17.6918ZM20.1899 9.65662L19.1412 10.7053L16.2955 7.85959L17.3441 6.81096C17.4428 6.7125 17.5765 6.65722 17.7159 6.65723C17.8553 6.65725 17.9889 6.71257 18.0876 6.81105L20.1899 8.91332C20.2884 9.01195 20.3437 9.14561 20.3437 9.28498C20.3437 9.42434 20.2883 9.558 20.1899 9.65662V9.65662Z" fill="#0054A6" stroke="#0054A6" stroke-width="0.25"/>
</svg>
