<svg width="26" height="28" viewBox="0 0 26 28" fill="none" xmlns="http://www.w3.org/2000/svg">
<path d="M24.7451 16.5794C24.9031 15.8105 24.9836 15.022 24.9836 14.2312C24.9836 11.3422 23.9138 8.57117 21.9714 6.4285C20.1306 4.39803 17.6496 3.08416 14.9504 2.70045C14.9448 1.76189 14.1766 1 13.2327 1C12.2854 1 11.5147 1.76736 11.5147 2.71064C11.5147 2.71229 11.5148 2.71394 11.5148 2.71558C5.82705 3.57348 1.58495 8.45669 1.58495 14.2312C1.58495 15.0082 1.66297 15.7846 1.81655 16.5436C1.327 16.8454 1 17.3849 1 17.9991C1 18.9424 1.77064 19.7098 2.71795 19.7098C2.7965 19.7098 2.87366 19.704 2.94944 19.6938C3.80204 21.2888 5.02804 22.6801 6.51118 23.7302C8.01193 24.7929 9.75499 25.4894 11.5724 25.7557C11.6435 26.6345 12.3838 27.3281 13.2843 27.3281C14.1847 27.3281 14.925 26.6347 14.9961 25.7561C16.8101 25.4903 18.5502 24.7957 20.049 23.7363C21.5331 22.6871 22.7606 21.296 23.6145 19.7011C23.6715 19.7067 23.7293 19.7098 23.7878 19.7098C24.7351 19.7098 25.5057 18.9424 25.5057 17.9991C25.5057 17.4085 25.2035 16.8869 24.7451 16.5794ZM24.0111 16.3027C24.004 16.3018 23.997 16.3015 23.9899 16.3006C23.9679 16.2981 23.9457 16.296 23.9234 16.2942C23.9119 16.2934 23.9006 16.2922 23.8892 16.2916C23.8556 16.2896 23.8218 16.2884 23.7878 16.2884C23.1069 16.2884 22.5173 16.6848 22.2395 17.258C22.1852 17.3702 22.1432 17.4894 22.1144 17.6134H19.7109C19.897 16.5317 19.9924 15.3968 19.9924 14.2311C19.9924 13.4931 19.9524 12.7574 19.8744 12.038C20.3738 11.8263 20.7523 11.3854 20.877 10.8489H23.6723C24.0209 11.9155 24.209 13.0527 24.209 14.2311C24.2089 14.9282 24.1425 15.6233 24.0111 16.3027ZM7.35077 14.2312C7.35077 13.0602 7.45599 11.9215 7.65074 10.8489H12.8968V17.6135H7.64845C7.45519 16.5425 7.35077 15.4043 7.35077 14.2312ZM11.8256 3.69173C11.8991 3.79624 11.9841 3.89134 12.0781 3.9763C12.078 3.97625 12.0781 3.97636 12.0781 3.9763C12.1356 4.02824 12.1966 4.0764 12.2606 4.12015C12.269 4.12583 12.2774 4.13152 12.2859 4.13709C12.3035 4.14872 12.3211 4.16024 12.3392 4.17118C12.3562 4.18154 12.3735 4.19131 12.3909 4.20108C12.4112 4.21239 12.4315 4.22333 12.4522 4.23389C12.4709 4.2434 12.4896 4.25264 12.5086 4.26151C12.5211 4.26724 12.5336 4.27298 12.5462 4.2785C12.5723 4.28986 12.5987 4.30064 12.6254 4.31073C12.6308 4.31275 12.636 4.31503 12.6413 4.317C12.6741 4.329 12.7074 4.33967 12.741 4.34971C12.75 4.35236 12.7589 4.3548 12.7679 4.3573C12.7963 4.36527 12.8249 4.37249 12.8539 4.37902C12.8608 4.38061 12.8677 4.38236 12.8748 4.38385C12.8821 4.38539 12.8894 4.38693 12.8968 4.38842V10.0777H7.80902C8.51656 6.98754 9.98771 4.55887 11.8256 3.69173ZM13.9742 4.2536C13.9773 4.25211 13.9804 4.25046 13.9836 4.24892C14.2588 4.1159 14.4948 3.91194 14.6649 3.65632C16.2698 4.37052 17.6394 6.27382 18.456 8.92334C17.9946 9.14631 17.6484 9.56894 17.5302 10.0776H13.6716V4.36447C13.6782 4.36272 13.6848 4.36065 13.6915 4.35879C13.7058 4.35486 13.72 4.35098 13.7342 4.34668C13.7563 4.33994 13.778 4.33266 13.7997 4.32507C13.826 4.31599 13.8518 4.30611 13.8775 4.2957C13.8884 4.2913 13.8994 4.28694 13.9102 4.28232C13.9317 4.2733 13.953 4.26368 13.9742 4.2536ZM19.2036 11.4026C18.6833 11.4026 18.2602 10.9812 18.2602 10.4633C18.2602 9.94537 18.6833 9.52396 19.2036 9.52396C19.7237 9.52396 20.1469 9.94532 20.1469 10.4633C20.1469 10.9813 19.7237 11.4026 19.2036 11.4026ZM12.8969 18.3848V23.9512C12.4296 24.0589 12.0349 24.3568 11.7996 24.7585C9.96835 23.8808 8.50755 21.4675 7.80544 18.3848L12.8969 18.3848ZM14.769 24.7586C14.5337 24.3568 14.1389 24.0589 13.6716 23.9512V18.3848H18.7596C18.0554 21.4604 16.5949 23.8808 14.769 24.7586ZM13.6716 17.6135V10.8489H17.5302C17.6995 11.5776 18.3373 12.1296 19.1095 12.1713C19.1809 12.8472 19.2177 13.538 19.2177 14.2312C19.2177 15.4022 19.1126 16.541 18.9178 17.6135H13.6716ZM23.3873 10.0776H20.8769C20.7014 9.3225 20.0229 8.75729 19.2131 8.75283C18.5447 6.55785 17.502 4.81992 16.2415 3.75503C19.5127 4.66231 22.1264 7.02753 23.3873 10.0776ZM13.2327 1.77134C13.7528 1.77134 14.1761 2.1927 14.1761 2.7107C14.1761 2.80155 14.1623 2.88917 14.138 2.97232C14.1354 2.98135 14.1328 2.99049 14.13 2.99941C14.1224 3.02293 14.1139 3.04603 14.1045 3.06865C14.1033 3.07168 14.1021 3.07486 14.1009 3.07789C14.0053 3.30102 13.8255 3.48002 13.6014 3.57513C13.5989 3.57619 13.5962 3.57714 13.5937 3.57821C13.5703 3.58787 13.5464 3.59653 13.5222 3.60433C13.5147 3.60677 13.5071 3.6089 13.4995 3.61113C13.4795 3.61697 13.4593 3.62217 13.4387 3.62669C13.4295 3.62876 13.4201 3.63083 13.4107 3.63263C13.3904 3.63651 13.3698 3.63948 13.3491 3.64198C13.3401 3.64304 13.3313 3.64453 13.3222 3.64538C13.2927 3.64814 13.2629 3.64989 13.2327 3.64989C13.2027 3.64989 13.1731 3.64814 13.1438 3.64543C13.1341 3.64453 13.1246 3.64299 13.115 3.64177C13.0954 3.63932 13.0759 3.63651 13.0567 3.63285C13.046 3.63083 13.0354 3.62849 13.0248 3.6261C13.0064 3.62196 12.9882 3.61729 12.9702 3.61214C12.9605 3.60932 12.9507 3.60651 12.9411 3.60343C12.9206 3.59674 12.9004 3.5893 12.8805 3.58128C12.8743 3.57884 12.8679 3.57661 12.8617 3.57396C12.8071 3.55054 12.755 3.5224 12.7062 3.48963C12.7054 3.4891 12.7048 3.48857 12.704 3.48809C12.6802 3.472 12.6571 3.45475 12.6349 3.43664C12.6334 3.43547 12.632 3.4342 12.6305 3.43292C12.6084 3.4146 12.5871 3.39543 12.5667 3.3752C12.5663 3.37472 12.5659 3.37435 12.5654 3.37387C12.4814 3.29008 12.4133 3.19046 12.3656 3.08012C12.3636 3.07539 12.3618 3.07056 12.3599 3.06583C12.3511 3.04459 12.3432 3.02293 12.336 3.001C12.3333 2.99261 12.3307 2.98411 12.3283 2.97567C12.3034 2.89156 12.2894 2.80272 12.2894 2.71064C12.2894 2.1927 12.7125 1.77134 13.2327 1.77134ZM10.3316 3.75535C9.43604 4.51352 8.64092 5.61606 8.01833 6.98494C7.58669 7.93401 7.2494 8.97399 7.0091 10.0776H3.18552C4.44928 7.03188 7.06435 4.66306 10.3316 3.75535ZM2.55674 16.2959C2.42582 15.6173 2.35958 14.9245 2.35958 14.2311C2.35958 13.0539 2.54852 11.9164 2.89894 10.8489H6.85776C6.67159 11.9305 6.57624 13.0655 6.57624 14.2311C6.57624 15.3832 6.67458 16.5235 6.86309 17.6134H4.39136C4.36257 17.4894 4.3206 17.3702 4.26626 17.258C3.98847 16.6848 3.39883 16.2884 2.718 16.2884C2.71811 16.2884 2.71789 16.2884 2.718 16.2884C2.68963 16.2884 2.6612 16.2892 2.63305 16.2906C2.62452 16.291 2.61614 16.2918 2.60772 16.2924C2.59071 16.2934 2.57369 16.2943 2.55674 16.2959ZM1.77464 17.9991C1.77464 17.5838 2.04693 17.2312 2.42283 17.1075C2.43174 17.1046 2.44054 17.1017 2.44949 17.0991C2.46912 17.0933 2.48912 17.0883 2.50922 17.0837C2.51855 17.0816 2.52789 17.0793 2.53727 17.0775C2.55818 17.0734 2.57945 17.0704 2.60084 17.0678C2.60958 17.0667 2.61817 17.0652 2.62697 17.0643C2.65689 17.0615 2.68712 17.0598 2.71773 17.0598C2.71768 17.0598 2.71779 17.0598 2.71773 17.0598C2.89691 17.0598 3.0642 17.1107 3.20707 17.1975C3.47882 17.3625 3.66126 17.6596 3.66126 17.9991C3.66126 18.0283 3.6595 18.0571 3.65688 18.0856C3.65603 18.0951 3.65464 18.1045 3.65347 18.1139C3.65107 18.133 3.64824 18.1519 3.64472 18.1707C3.64275 18.1812 3.64072 18.1916 3.63848 18.202C3.63433 18.2209 3.62937 18.2395 3.62403 18.2579C3.62158 18.2666 3.61945 18.2753 3.61667 18.2838C3.60846 18.3095 3.59918 18.3348 3.58884 18.3595C3.58574 18.3669 3.58206 18.3741 3.57876 18.3814C3.57049 18.3998 3.56185 18.418 3.55247 18.4357C3.5482 18.4438 3.54362 18.4518 3.53908 18.4598C3.529 18.4775 3.51844 18.4949 3.50725 18.5119C3.50325 18.5179 3.49935 18.5241 3.49519 18.5301C3.46261 18.5773 3.42603 18.6215 3.38555 18.6619C3.38417 18.6633 3.38267 18.6646 3.38129 18.666C3.36251 18.6846 3.34284 18.7023 3.32247 18.7192C3.31873 18.7224 3.31495 18.7254 3.31111 18.7285C3.29212 18.7439 3.27244 18.7585 3.25223 18.7723C3.24834 18.775 3.24455 18.7778 3.24061 18.7804C3.19315 18.812 3.1427 18.8393 3.08974 18.8621C3.08223 18.8653 3.07433 18.868 3.06665 18.871C2.95856 18.9141 2.84103 18.9385 2.71773 18.9385C2.19779 18.9384 1.77464 18.5171 1.77464 17.9991ZM3.67859 19.4173C3.72205 19.388 3.76354 19.3563 3.80391 19.3235C3.80732 19.3207 3.81073 19.3179 3.81409 19.3152C3.83313 19.2994 3.8519 19.2833 3.87025 19.2667C3.87254 19.2647 3.87473 19.2627 3.87697 19.2606C3.93301 19.2094 3.98543 19.1549 4.03396 19.0971C4.0378 19.0926 4.04175 19.0882 4.04553 19.0835C4.05823 19.0681 4.0706 19.0523 4.08276 19.0364C4.09001 19.027 4.0971 19.0176 4.10414 19.008C4.11454 18.9939 4.12472 18.9797 4.13464 18.9653C4.14387 18.9519 4.15278 18.9383 4.16163 18.9246C4.16915 18.9129 4.17699 18.9014 4.18419 18.8895C4.20013 18.8636 4.21538 18.8372 4.22994 18.8104C4.23287 18.805 4.23554 18.7995 4.23837 18.794C4.25068 18.7707 4.26258 18.747 4.27388 18.7231C4.27735 18.7158 4.28065 18.7083 4.28401 18.7009C4.29452 18.6777 4.30449 18.6543 4.31404 18.6306C4.3167 18.624 4.31942 18.6173 4.32198 18.6105C4.3327 18.5827 4.34278 18.5546 4.35206 18.5261C4.35281 18.5239 4.35366 18.5216 4.35441 18.5194C4.36854 18.4753 4.3807 18.4304 4.39126 18.3849H7.01342C7.26054 19.5216 7.6085 20.5901 8.04819 21.5428C8.66679 22.8831 9.45033 23.9615 10.3312 24.707C7.50324 23.9223 5.10296 22.0319 3.67859 19.4173ZM13.2843 26.5568C12.7641 26.5568 12.3409 26.1354 12.3409 25.6174C12.3409 25.5598 12.3469 25.5037 12.3569 25.4489C12.3592 25.4368 12.3614 25.4248 12.3641 25.4128C12.3681 25.3952 12.3727 25.3779 12.3777 25.3605C12.381 25.3491 12.3841 25.3376 12.3879 25.3263C12.3933 25.31 12.3994 25.2941 12.4056 25.2781C12.4103 25.2661 12.4148 25.254 12.42 25.2423C12.4257 25.2292 12.4322 25.2166 12.4386 25.2039C12.4457 25.1898 12.4523 25.1755 12.46 25.1619C12.4633 25.1561 12.4671 25.1505 12.4705 25.1447C12.5657 24.984 12.707 24.8539 12.8752 24.7725C12.8762 24.7719 12.8773 24.7714 12.8783 24.771C12.9013 24.76 12.9248 24.75 12.9486 24.7408C12.9526 24.7393 12.9566 24.7379 12.9606 24.7364C12.9822 24.7285 13.0041 24.7212 13.0263 24.7148C13.0341 24.7126 13.042 24.7107 13.0499 24.7088C13.0691 24.7038 13.0885 24.699 13.1081 24.6952C13.1217 24.6927 13.1355 24.6909 13.1493 24.689C13.1642 24.6868 13.179 24.6843 13.1941 24.6828C13.2238 24.68 13.2538 24.6783 13.2842 24.6783C13.284 24.6783 13.2843 24.6783 13.2842 24.6783C13.3147 24.6783 13.345 24.68 13.3748 24.6828C13.3897 24.6843 13.4042 24.6868 13.4189 24.6889C13.4329 24.6909 13.4471 24.6927 13.4609 24.6953C13.4803 24.6991 13.4993 24.7037 13.5184 24.7087C13.5265 24.7108 13.5348 24.7127 13.5429 24.7149C13.5649 24.7213 13.5864 24.7284 13.6077 24.7362C13.612 24.7378 13.6164 24.7393 13.6207 24.741C13.6443 24.75 13.6674 24.7599 13.6901 24.7708C13.6915 24.7714 13.6929 24.7721 13.6943 24.7728C13.8621 24.8542 14.0031 24.9841 14.0981 25.1445C14.1017 25.1504 14.1055 25.1561 14.1089 25.1621C14.1165 25.1758 14.1232 25.19 14.1302 25.204C14.1365 25.2167 14.143 25.2293 14.1488 25.2424C14.154 25.2542 14.1585 25.2663 14.1632 25.2785C14.1694 25.2943 14.1755 25.3101 14.1809 25.3263C14.1846 25.3378 14.1878 25.3494 14.1911 25.361C14.196 25.3781 14.2006 25.3953 14.2046 25.4127C14.2073 25.4249 14.2096 25.4372 14.2119 25.4494C14.2219 25.504 14.2278 25.56 14.2278 25.6175C14.2276 26.1354 13.8045 26.5568 13.2843 26.5568ZM22.8734 19.4463C21.4473 22.0457 19.0535 23.9252 16.2368 24.7071C17.1322 23.9492 17.9271 22.8471 18.5496 21.4788C18.9815 20.5294 19.3191 19.4889 19.5595 18.3848H22.1144C22.2179 18.8298 22.4964 19.2091 22.8734 19.4463C22.8736 19.4464 22.8732 19.4462 22.8734 19.4463ZM23.7878 18.9384C23.6915 18.9384 23.5987 18.9238 23.5111 18.897C23.5045 18.8949 23.4981 18.8924 23.4915 18.8902C23.4708 18.8834 23.4502 18.8761 23.4302 18.8679C23.4212 18.8641 23.4124 18.8601 23.4035 18.8561C23.3866 18.8486 23.37 18.8407 23.3537 18.8322C23.3437 18.827 23.3338 18.8217 23.3241 18.8162C23.31 18.8082 23.2963 18.7997 23.2826 18.7911C23.2718 18.7841 23.2608 18.7773 23.2503 18.77C23.2401 18.763 23.2305 18.7554 23.2207 18.748C23.1692 18.709 23.1214 18.6653 23.079 18.6169C23.0788 18.6167 23.0785 18.6165 23.0784 18.6163C23.0624 18.598 23.0471 18.5791 23.0325 18.5596C23.0321 18.559 23.0317 18.5585 23.0313 18.558C22.9608 18.4633 22.9083 18.3555 22.8771 18.2404C22.8746 18.2313 22.8722 18.2223 22.87 18.2131C22.8662 18.1976 22.863 18.1819 22.8602 18.1663C22.8575 18.1513 22.8552 18.1362 22.8532 18.121C22.8516 18.1091 22.8498 18.0972 22.8487 18.0851C22.8461 18.0567 22.8443 18.0282 22.8443 17.9992C22.8443 17.6597 23.0267 17.3625 23.2985 17.1975C23.4414 17.1107 23.6085 17.0599 23.7877 17.0598C23.7874 17.0598 23.788 17.0598 23.7877 17.0598C23.8199 17.0598 23.8526 17.0615 23.884 17.0647C23.8845 17.0648 23.8849 17.0649 23.8853 17.0649C24.3598 17.1137 24.731 17.514 24.731 17.9992C24.7311 18.5171 24.308 18.9384 23.7878 18.9384Z" fill="url(#paint0_linear)"/>
<path d="M12.0781 3.9763C11.9841 3.89134 11.8991 3.79624 11.8256 3.69173C9.98771 4.55887 8.51656 6.98754 7.80902 10.0777H12.8968V4.38842C12.8894 4.38693 12.8821 4.38539 12.8748 4.38385C12.8677 4.38236 12.8608 4.38061 12.8539 4.37902C12.8249 4.37249 12.7963 4.36527 12.7679 4.3573C12.7589 4.35481 12.75 4.35236 12.741 4.34971C12.7074 4.33967 12.6741 4.329 12.6413 4.317C12.636 4.31503 12.6308 4.31275 12.6254 4.31073C12.5987 4.30064 12.5723 4.28986 12.5462 4.2785C12.5336 4.27298 12.5211 4.26724 12.5086 4.26151C12.4896 4.25264 12.4709 4.2434 12.4522 4.23389C12.4315 4.22333 12.4112 4.21239 12.3909 4.20108C12.3735 4.19131 12.3562 4.18154 12.3392 4.17118C12.3211 4.16024 12.3035 4.14872 12.2859 4.13709C12.2774 4.13152 12.269 4.12583 12.2606 4.12015C12.1966 4.0764 12.1356 4.02824 12.0781 3.9763ZM12.0781 3.9763C12.0781 3.97636 12.078 3.97625 12.0781 3.9763ZM2.718 16.2884C3.39883 16.2884 3.98847 16.6848 4.26626 17.258C4.3206 17.3702 4.36257 17.4894 4.39136 17.6134H6.86309C6.67458 16.5235 6.57624 15.3832 6.57624 14.2311C6.57624 13.0655 6.67159 11.9305 6.85776 10.8489H2.89894C2.54852 11.9164 2.35958 13.0539 2.35958 14.2311C2.35958 14.9245 2.42582 15.6173 2.55674 16.2959C2.57369 16.2943 2.59071 16.2934 2.60772 16.2924C2.61614 16.2918 2.62452 16.291 2.63305 16.2906C2.6612 16.2892 2.68963 16.2884 2.718 16.2884ZM2.718 16.2884C2.71789 16.2884 2.71811 16.2884 2.718 16.2884ZM2.71773 17.0598C2.68712 17.0598 2.65689 17.0615 2.62697 17.0643C2.61817 17.0652 2.60958 17.0667 2.60084 17.0678C2.57945 17.0704 2.55818 17.0734 2.53727 17.0775C2.52789 17.0793 2.51855 17.0816 2.50922 17.0837C2.48912 17.0883 2.46912 17.0933 2.44949 17.0991C2.44054 17.1017 2.43174 17.1046 2.42283 17.1075C2.04693 17.2312 1.77464 17.5838 1.77464 17.9991C1.77464 18.5171 2.19779 18.9384 2.71773 18.9385C2.84103 18.9385 2.95856 18.9141 3.06665 18.871C3.07433 18.868 3.08223 18.8653 3.08974 18.8621C3.1427 18.8393 3.19315 18.812 3.24061 18.7804C3.24455 18.7778 3.24834 18.775 3.25223 18.7723C3.27244 18.7585 3.29212 18.7439 3.31111 18.7285C3.31495 18.7254 3.31873 18.7224 3.32247 18.7192C3.34284 18.7023 3.36251 18.6846 3.38129 18.666C3.38267 18.6646 3.38417 18.6633 3.38555 18.6619C3.42603 18.6215 3.46261 18.5773 3.49519 18.5301C3.49935 18.5241 3.50325 18.5179 3.50725 18.5119C3.51844 18.4949 3.529 18.4775 3.53908 18.4598C3.54362 18.4518 3.5482 18.4438 3.55247 18.4357C3.56185 18.418 3.57049 18.3998 3.57876 18.3814C3.58206 18.3741 3.58574 18.3669 3.58884 18.3595C3.59918 18.3348 3.60846 18.3095 3.61667 18.2838C3.61945 18.2753 3.62158 18.2666 3.62403 18.2579C3.62937 18.2395 3.63433 18.2209 3.63848 18.202C3.64072 18.1916 3.64275 18.1812 3.64472 18.1707C3.64824 18.1519 3.65107 18.133 3.65347 18.1139C3.65464 18.1045 3.65603 18.0951 3.65688 18.0856C3.6595 18.0571 3.66126 18.0283 3.66126 17.9991C3.66126 17.6596 3.47882 17.3625 3.20707 17.1975C3.0642 17.1107 2.89691 17.0598 2.71773 17.0598ZM2.71773 17.0598C2.71779 17.0598 2.71768 17.0598 2.71773 17.0598ZM13.2842 24.6783C13.2538 24.6783 13.2238 24.68 13.1941 24.6828C13.179 24.6843 13.1642 24.6868 13.1493 24.689C13.1355 24.6909 13.1217 24.6927 13.1081 24.6952C13.0885 24.699 13.0691 24.7038 13.0499 24.7088C13.042 24.7107 13.0341 24.7126 13.0263 24.7148C13.0041 24.7212 12.9822 24.7285 12.9606 24.7364C12.9566 24.7379 12.9526 24.7393 12.9486 24.7408C12.9248 24.75 12.9013 24.76 12.8783 24.771C12.8773 24.7714 12.8762 24.7719 12.8752 24.7725C12.707 24.8539 12.5657 24.984 12.4705 25.1447C12.4671 25.1505 12.4633 25.1561 12.46 25.1619C12.4523 25.1755 12.4457 25.1898 12.4386 25.2039C12.4322 25.2166 12.4257 25.2292 12.42 25.2423C12.4148 25.254 12.4103 25.2661 12.4056 25.2781C12.3994 25.2941 12.3933 25.31 12.3879 25.3263C12.3841 25.3376 12.381 25.3491 12.3777 25.3605C12.3727 25.3779 12.3681 25.3952 12.3641 25.4129C12.3614 25.4248 12.3592 25.4368 12.3569 25.4489C12.3469 25.5037 12.3409 25.5598 12.3409 25.6174C12.3409 26.1354 12.7641 26.5568 13.2843 26.5568C13.8045 26.5568 14.2276 26.1354 14.2278 25.6175C14.2278 25.56 14.2219 25.504 14.2119 25.4494C14.2096 25.4372 14.2073 25.4249 14.2046 25.4127C14.2006 25.3953 14.196 25.3781 14.1911 25.361C14.1878 25.3494 14.1846 25.3378 14.1809 25.3263C14.1755 25.3101 14.1694 25.2943 14.1632 25.2785C14.1585 25.2663 14.154 25.2542 14.1488 25.2424C14.143 25.2293 14.1365 25.2168 14.1302 25.204C14.1232 25.19 14.1165 25.1758 14.1089 25.1621C14.1055 25.1561 14.1017 25.1504 14.0981 25.1445C14.0031 24.9841 13.8621 24.8542 13.6943 24.7728C13.6929 24.7721 13.6915 24.7714 13.6901 24.7708C13.6674 24.7599 13.6443 24.75 13.6207 24.741C13.6164 24.7393 13.612 24.7378 13.6077 24.7362C13.5864 24.7284 13.5649 24.7213 13.5429 24.7149C13.5348 24.7127 13.5265 24.7108 13.5184 24.7087C13.4993 24.7037 13.4803 24.6991 13.4609 24.6953C13.4471 24.6927 13.4329 24.6909 13.4189 24.6889C13.4042 24.6868 13.3897 24.6843 13.3748 24.6828C13.345 24.68 13.3147 24.6783 13.2842 24.6783ZM13.2842 24.6783C13.2843 24.6783 13.284 24.6783 13.2842 24.6783ZM22.8734 19.4463C21.4473 22.0457 19.0535 23.9252 16.2368 24.7071C17.1322 23.9492 17.9271 22.8471 18.5496 21.4788C18.9815 20.5294 19.3191 19.4889 19.5595 18.3848H22.1144C22.2179 18.8298 22.4964 19.2091 22.8734 19.4463ZM22.8734 19.4463C22.8736 19.4464 22.8732 19.4462 22.8734 19.4463ZM23.7877 17.0598C23.6085 17.0599 23.4414 17.1107 23.2985 17.1975C23.0267 17.3625 22.8443 17.6597 22.8443 17.9992C22.8443 18.0282 22.8461 18.0567 22.8487 18.0851C22.8498 18.0972 22.8516 18.1091 22.8532 18.121C22.8552 18.1362 22.8575 18.1513 22.8602 18.1663C22.863 18.1819 22.8662 18.1976 22.87 18.2131C22.8722 18.2223 22.8746 18.2313 22.8771 18.2404C22.9083 18.3555 22.9608 18.4633 23.0313 18.558C23.0317 18.5585 23.0321 18.559 23.0325 18.5596C23.0471 18.5791 23.0624 18.598 23.0784 18.6163C23.0785 18.6165 23.0788 18.6167 23.079 18.617C23.1214 18.6653 23.1692 18.709 23.2207 18.748C23.2305 18.7554 23.2401 18.763 23.2503 18.77C23.2608 18.7773 23.2718 18.7841 23.2826 18.7911C23.2963 18.7997 23.31 18.8082 23.3241 18.8162C23.3338 18.8217 23.3437 18.827 23.3537 18.8322C23.37 18.8407 23.3866 18.8486 23.4035 18.8561C23.4124 18.8601 23.4212 18.8641 23.4302 18.8679C23.4502 18.8761 23.4708 18.8834 23.4915 18.8902C23.4981 18.8924 23.5045 18.8949 23.5111 18.897C23.5987 18.9238 23.6915 18.9384 23.7877 18.9384C24.308 18.9384 24.7311 18.5171 24.731 17.9992C24.731 17.514 24.3598 17.1137 23.8853 17.0649C23.8849 17.0649 23.8845 17.0648 23.884 17.0647C23.8526 17.0615 23.8199 17.0598 23.7877 17.0598ZM23.7877 17.0598C23.788 17.0598 23.7874 17.0598 23.7877 17.0598ZM24.7451 16.5794C24.9031 15.8105 24.9836 15.022 24.9836 14.2312C24.9836 11.3422 23.9138 8.57117 21.9714 6.4285C20.1306 4.39803 17.6496 3.08416 14.9504 2.70045C14.9448 1.76189 14.1766 1 13.2327 1C12.2854 1 11.5147 1.76736 11.5147 2.71064C11.5147 2.71229 11.5148 2.71394 11.5148 2.71558C5.82705 3.57348 1.58495 8.45669 1.58495 14.2312C1.58495 15.0082 1.66297 15.7846 1.81655 16.5436C1.327 16.8454 1 17.3849 1 17.9991C1 18.9424 1.77064 19.7098 2.71795 19.7098C2.7965 19.7098 2.87366 19.704 2.94944 19.6938C3.80204 21.2888 5.02804 22.6801 6.51118 23.7302C8.01193 24.793 9.75499 25.4894 11.5724 25.7557C11.6435 26.6345 12.3838 27.3281 13.2843 27.3281C14.1847 27.3281 14.925 26.6347 14.9961 25.7561C16.8101 25.4903 18.5502 24.7957 20.049 23.7363C21.5331 22.6871 22.7606 21.296 23.6145 19.7011C23.6715 19.7067 23.7293 19.7098 23.7878 19.7098C24.7351 19.7098 25.5057 18.9424 25.5057 17.9991C25.5057 17.4085 25.2035 16.8869 24.7451 16.5794ZM24.0111 16.3027C24.004 16.3018 23.997 16.3015 23.9899 16.3006C23.9679 16.2981 23.9457 16.296 23.9234 16.2942C23.9119 16.2934 23.9006 16.2922 23.8892 16.2916C23.8556 16.2896 23.8218 16.2884 23.7877 16.2884C23.1069 16.2884 22.5173 16.6848 22.2395 17.258C22.1852 17.3702 22.1432 17.4894 22.1144 17.6134H19.7109C19.897 16.5317 19.9924 15.3968 19.9924 14.2311C19.9924 13.4931 19.9524 12.7574 19.8744 12.038C20.3738 11.8263 20.7523 11.3854 20.877 10.8489H23.6723C24.0209 11.9155 24.209 13.0527 24.209 14.2311C24.2089 14.9282 24.1425 15.6233 24.0111 16.3027ZM7.35077 14.2312C7.35077 13.0602 7.45599 11.9215 7.65074 10.8489H12.8968V17.6135H7.64845C7.45519 16.5425 7.35077 15.4043 7.35077 14.2312ZM13.9742 4.2536C13.9773 4.25211 13.9804 4.25046 13.9836 4.24892C14.2588 4.1159 14.4948 3.91194 14.6649 3.65632C16.2699 4.37052 17.6394 6.27382 18.456 8.92334C17.9946 9.14631 17.6484 9.56894 17.5302 10.0776H13.6716V4.36447C13.6782 4.36272 13.6848 4.36065 13.6915 4.35879C13.7058 4.35486 13.72 4.35098 13.7342 4.34668C13.7563 4.33994 13.778 4.33266 13.7997 4.32507C13.826 4.31599 13.8518 4.30611 13.8775 4.2957C13.8884 4.2913 13.8994 4.28694 13.9102 4.28232C13.9317 4.2733 13.953 4.26368 13.9742 4.2536ZM19.2036 11.4026C18.6833 11.4026 18.2602 10.9812 18.2602 10.4633C18.2602 9.94537 18.6833 9.52396 19.2036 9.52396C19.7237 9.52396 20.1469 9.94532 20.1469 10.4633C20.1469 10.9813 19.7237 11.4026 19.2036 11.4026ZM12.8969 18.3848V23.9512C12.4296 24.0589 12.0349 24.3568 11.7996 24.7585C9.96835 23.8808 8.50755 21.4675 7.80544 18.3848L12.8969 18.3848ZM14.769 24.7586C14.5337 24.3568 14.1389 24.0589 13.6716 23.9512V18.3848H18.7596C18.0554 21.4604 16.5949 23.8808 14.769 24.7586ZM13.6716 17.6135V10.8489H17.5302C17.6995 11.5776 18.3373 12.1296 19.1095 12.1713C19.1809 12.8472 19.2177 13.538 19.2177 14.2312C19.2177 15.4022 19.1126 16.541 18.9178 17.6135H13.6716ZM23.3873 10.0776H20.8769C20.7014 9.3225 20.0229 8.75729 19.2131 8.75283C18.5447 6.55785 17.502 4.81992 16.2415 3.75503C19.5127 4.66231 22.1264 7.02753 23.3873 10.0776ZM13.2327 1.77134C13.7528 1.77134 14.1761 2.1927 14.1761 2.7107C14.1761 2.80155 14.1623 2.88917 14.138 2.97232C14.1354 2.98135 14.1328 2.99049 14.13 2.99941C14.1224 3.02293 14.1139 3.04603 14.1045 3.06865C14.1033 3.07168 14.1021 3.07486 14.1009 3.07789C14.0053 3.30102 13.8255 3.48002 13.6014 3.57513C13.5989 3.57619 13.5962 3.57714 13.5937 3.57821C13.5703 3.58787 13.5464 3.59653 13.5222 3.60433C13.5147 3.60677 13.5071 3.6089 13.4995 3.61113C13.4795 3.61697 13.4593 3.62217 13.4387 3.62669C13.4295 3.62876 13.4201 3.63083 13.4107 3.63263C13.3904 3.63651 13.3698 3.63948 13.3491 3.64198C13.3401 3.64304 13.3313 3.64453 13.3222 3.64538C13.2927 3.64814 13.2629 3.64989 13.2327 3.64989C13.2027 3.64989 13.1731 3.64814 13.1438 3.64543C13.1341 3.64453 13.1246 3.64299 13.115 3.64177C13.0954 3.63932 13.0759 3.63651 13.0567 3.63285C13.046 3.63083 13.0354 3.62849 13.0248 3.6261C13.0064 3.62196 12.9882 3.61729 12.9702 3.61214C12.9605 3.60932 12.9507 3.60651 12.9411 3.60343C12.9206 3.59674 12.9004 3.5893 12.8805 3.58128C12.8743 3.57884 12.8679 3.57661 12.8617 3.57396C12.8071 3.55054 12.755 3.5224 12.7062 3.48963C12.7054 3.4891 12.7048 3.48857 12.704 3.48809C12.6802 3.472 12.6571 3.45475 12.6349 3.43664C12.6334 3.43547 12.632 3.4342 12.6305 3.43292C12.6084 3.4146 12.5871 3.39543 12.5667 3.3752C12.5663 3.37472 12.5659 3.37435 12.5654 3.37387C12.4814 3.29008 12.4133 3.19046 12.3656 3.08012C12.3636 3.07539 12.3618 3.07056 12.3599 3.06584C12.3511 3.04459 12.3432 3.02293 12.336 3.001C12.3333 2.99261 12.3307 2.98411 12.3283 2.97567C12.3034 2.89156 12.2894 2.80272 12.2894 2.71064C12.2894 2.1927 12.7125 1.77134 13.2327 1.77134ZM10.3316 3.75535C9.43604 4.51352 8.64092 5.61606 8.01833 6.98494C7.58669 7.93401 7.2494 8.974 7.0091 10.0776H3.18552C4.44928 7.03188 7.06435 4.66306 10.3316 3.75535ZM3.67859 19.4173C3.72205 19.388 3.76354 19.3563 3.80391 19.3235C3.80732 19.3207 3.81073 19.3179 3.81409 19.3152C3.83313 19.2994 3.8519 19.2833 3.87025 19.2667C3.87254 19.2647 3.87473 19.2627 3.87697 19.2606C3.93301 19.2095 3.98543 19.1549 4.03396 19.0971C4.0378 19.0926 4.04175 19.0882 4.04553 19.0835C4.05823 19.0681 4.0706 19.0523 4.08276 19.0364C4.09001 19.027 4.0971 19.0176 4.10414 19.008C4.11454 18.9939 4.12473 18.9797 4.13464 18.9653C4.14387 18.9519 4.15278 18.9383 4.16163 18.9246C4.16915 18.9129 4.17699 18.9014 4.18419 18.8895C4.20013 18.8636 4.21538 18.8372 4.22994 18.8104C4.23287 18.805 4.23554 18.7995 4.23837 18.794C4.25068 18.7707 4.26258 18.747 4.27388 18.7231C4.27735 18.7158 4.28065 18.7083 4.28401 18.7009C4.29452 18.6777 4.30449 18.6543 4.31404 18.6306C4.3167 18.624 4.31942 18.6173 4.32198 18.6105C4.3327 18.5827 4.34278 18.5546 4.35206 18.5261C4.35281 18.5239 4.35366 18.5216 4.35441 18.5194C4.36854 18.4753 4.3807 18.4304 4.39126 18.3849H7.01342C7.26054 19.5216 7.6085 20.5901 8.04819 21.5428C8.66679 22.8831 9.45033 23.9615 10.3312 24.707C7.50324 23.9223 5.10296 22.0319 3.67859 19.4173Z" stroke="white" stroke-width="0.75"/>
<defs>
<linearGradient id="paint0_linear" x1="13.2529" y1="27.3281" x2="13.2529" y2="1.00001" gradientUnits="userSpaceOnUse">
<stop stop-color="white"/>
</linearGradient>
</defs>
</svg>
