<svg width="25" height="26" viewBox="0 0 25 26" fill="none" xmlns="http://www.w3.org/2000/svg">
<path d="M1.0206 26C0.911693 26.0003 0.803465 25.9829 0.700197 25.9486C0.572991 25.9069 0.455304 25.8408 0.353856 25.7541C0.252409 25.6673 0.169188 25.5616 0.108947 25.4429C0.0487068 25.3242 0.0126263 25.1949 0.00276652 25.0624C-0.00709325 24.9299 0.00946088 24.7967 0.0514835 24.6706L4.09773 12.5249C4.22842 12.1189 4.48658 11.7651 4.83449 11.515C5.18239 11.265 5.60179 11.1319 6.0314 11.1352H6.0359C6.46484 11.1308 6.88397 11.2625 7.2321 11.5111C7.58024 11.7597 7.83917 12.1121 7.9711 12.517L9.46089 16.9372L12.3846 1.64729C12.4688 1.1829 12.7157 0.762946 13.0817 0.46156C13.4478 0.160174 13.9093 -0.00326829 14.385 8.25991e-05H14.3895C14.8646 -0.00419647 15.326 0.157906 15.6925 0.457854C16.059 0.757802 16.307 1.17637 16.393 1.63986L20.4851 22.588L22.9843 11.6066C23.0444 11.3451 23.2067 11.118 23.4355 10.9751C23.6642 10.8322 23.9408 10.7852 24.2046 10.8443C24.4683 10.9035 24.6975 11.0641 24.842 11.2907C24.9865 11.5174 25.0344 11.7917 24.9752 12.0534L22.4755 23.0347C22.3722 23.4879 22.1148 23.8921 21.7465 24.1793C21.3783 24.4666 20.9217 24.6194 20.4533 24.6122C19.9848 24.605 19.5332 24.4383 19.1741 24.1399C18.815 23.8415 18.5703 23.4296 18.4811 22.9734L14.389 2.02486L11.4663 17.3147C11.382 17.7547 11.1529 18.1545 10.8151 18.4516C10.4772 18.7487 10.0496 18.9262 9.59912 18.9565C9.14866 18.9868 8.70078 18.8681 8.3256 18.6189C7.95041 18.3698 7.6691 18.0043 7.52569 17.5796L6.03589 13.1594L1.98964 25.3051C1.92234 25.5073 1.79246 25.6833 1.61848 25.8081C1.4445 25.9328 1.23528 26 1.0206 26Z" fill="white"/>
</svg>
