<svg width="23" height="29" viewBox="0 0 23 29" fill="none" xmlns="http://www.w3.org/2000/svg">
<path d="M9.0448 13.0231V13.023C9.19553 12.869 9.27994 12.6622 9.28002 12.447C9.2801 12.2317 9.19585 12.0249 9.04523 11.8707H9.0453L9.04511 11.8706L9.04497 11.8702L9.04485 11.8704C8.96968 11.7936 8.8799 11.7326 8.78077 11.6909C8.68163 11.6492 8.57515 11.6278 8.46759 11.6277C8.36002 11.6277 8.25353 11.6492 8.15438 11.6908C8.05523 11.7324 7.96542 11.7934 7.89023 11.8701V11.8702L4.7549 15.0553C4.60401 15.2094 4.51953 15.4163 4.51953 15.6318C4.51953 15.8472 4.60401 16.0541 4.7549 16.2082L7.89008 19.3939L7.89021 19.394C7.96547 19.4706 8.05529 19.5315 8.15442 19.573C8.25354 19.6146 8.35998 19.636 8.46749 19.636C8.57501 19.636 8.68144 19.6146 8.78057 19.573C8.87969 19.5315 8.96951 19.4706 9.04478 19.394L8.76333 19.1183L8.79363 19.1478L9.04472 19.394L9.04508 19.3936C9.19581 19.2393 9.28014 19.0324 9.28007 18.8169C9.28 18.6015 9.19554 18.3946 9.04472 18.2405L6.47699 15.6318L9.0448 13.0231Z" fill="white"/>
<path d="M15.1108 11.8701L15.1106 11.8702C15.0354 11.7935 14.9456 11.7325 14.8465 11.6909C14.7474 11.6493 14.6409 11.6278 14.5333 11.6278C14.4258 11.6278 14.3193 11.6493 14.2201 11.6909C14.121 11.7325 14.0312 11.7935 13.956 11.8702H13.9561C13.8052 12.0244 13.7208 12.2312 13.7208 12.4467C13.7208 12.6621 13.8052 12.869 13.9561 13.0231H13.9561L14.0764 12.9051L14.1364 12.8463L13.9561 13.0231L16.5259 15.6316L13.9561 18.2402L14.2273 18.5061L14.1039 18.3852L13.9561 18.2402L13.9561 18.2404C13.8053 18.3945 13.7208 18.6014 13.7207 18.8168C13.7206 19.0323 13.8049 19.2392 13.9556 19.3935L13.9569 19.3947L14.2168 19.1384L14.2265 19.1289L13.957 19.3948C14.0323 19.4712 14.1221 19.5319 14.2212 19.5733C14.3202 19.6147 14.4266 19.636 14.534 19.6359C14.6414 19.6359 14.7477 19.6144 14.8467 19.5729C14.9458 19.5313 15.0355 19.4705 15.1107 19.394L18.2461 16.2082L18.2459 16.2081C18.397 16.0541 18.4816 15.8472 18.4816 15.6317C18.4816 15.4162 18.397 15.2093 18.2459 15.0554L18.2461 15.0552L15.1108 11.8701Z" fill="white"/>
<path d="M22.8039 9.01652H22.804L22.8038 9.01633L22.8037 9.01609H22.8036L15.3683 0.289379H15.3682L15.3656 0.286239L15.3649 0.286794C15.2894 0.19703 15.195 0.124844 15.0886 0.0753004C14.9821 0.0257569 14.8661 5.57478e-05 14.7486 0H4.27826C3.13459 0.0108524 2.04192 0.473832 1.23992 1.28739C0.437909 2.10095 -0.00795853 3.19867 0.000107565 4.33978V24.6608C-0.00792774 25.8018 0.437967 26.8995 1.23998 27.7129C2.042 28.5264 3.13465 28.9893 4.27826 29H18.7217C19.8654 28.9893 20.958 28.5264 21.76 27.7129C22.562 26.8995 23.0079 25.8018 22.9999 24.6608V9.54913C23.0001 9.35399 22.9306 9.16516 22.8039 9.01652V9.01652ZM15.5614 3.02823L20.4199 8.73074H18.2164C17.5052 8.72261 16.8263 8.43336 16.3285 7.92642C15.8308 7.41948 15.5549 6.73626 15.5614 6.02664L15.5614 3.02823ZM21.3767 24.6602C21.3826 25.3697 21.1065 26.0526 20.6089 26.5595C20.1114 27.0664 19.4328 27.3559 18.7217 27.3648H4.27826C4.14708 27.3614 4.01635 27.3479 3.88724 27.3245C3.51139 27.2155 3.14594 27.0736 2.79512 26.9004C2.43308 26.6494 2.13753 26.3145 1.93389 25.9244C1.73025 25.5342 1.6246 25.1006 1.62603 24.6607V4.33978C1.61974 3.63091 1.89538 2.94846 2.39253 2.44201C2.88969 1.93557 3.56781 1.64643 4.27826 1.63798H13.9377V6.02671C13.9298 7.16782 14.3758 8.26549 15.1779 9.07896C15.98 9.89244 17.0727 10.3553 18.2164 10.366H21.3766L21.3767 24.6602Z" fill="white"/>
</svg>
